<?xml version="1.0" encoding="utf-8"?>
<!-- Generator: Adobe Illustrator 25.4.1, SVG Export Plug-In . SVG Version: 6.00 Build 0)  -->
<svg version="1.1" id="Layer_1" xmlns="http://www.w3.org/2000/svg" xmlns:xlink="http://www.w3.org/1999/xlink" x="0px" y="0px"
	 viewBox="0 0 100 100" style="enable-background:new 0 0 100 100;" xml:space="preserve">
<style type="text/css">
	.st0{fill:#3D54A5;stroke:#FFFFFF;stroke-miterlimit:10;}
</style>
<path class="st0" d="M97.76,52.45l-14.7-19.53c-0.71-0.95-2.13-0.96-2.85-0.02L65.02,52.42c-0.92,1.18-0.08,2.9,1.42,2.9h9.82
	c-2.54,15.21-15.79,26.83-31.71,26.83c-17.73,0-32.16-14.43-32.16-32.16c0-17.73,14.43-32.16,32.16-32.16
	c9.69,0,18.78,4.31,24.92,11.83c1.84,2.25,5.15,2.58,7.4,0.75c2.25-1.84,2.58-5.15,0.75-7.4c-8.15-9.97-20.2-15.69-33.07-15.69
	C21.02,7.32,1.87,26.47,1.87,50c0,23.53,19.15,42.68,42.68,42.68c21.73,0,39.71-16.33,42.34-37.36h9.44
	C97.81,55.32,98.66,53.63,97.76,52.45z"/>
</svg>
